<svg width="24" height="24" viewBox="0 0 24 24" fill="none" xmlns="http://www.w3.org/2000/svg">
<path d="M12 6.6L13.2288 5.1936C13.982 4.17369 15.0725 3.45389 16.3064 3.16212C17.5403 2.87034 18.8377 3.02549 19.968 3.6C20.8316 4.07594 21.5506 4.7763 22.0491 5.6271C22.5476 6.4779 22.807 7.44755 22.8 8.4336C22.8006 9.23742 22.6257 10.0317 22.2874 10.7609C21.9491 11.4901 21.4557 12.1366 20.8416 12.6552L12.5952 20.748C12.5178 20.8293 12.4248 20.8941 12.3216 20.9383C12.2185 20.9826 12.1074 21.0054 11.9952 21.0054C11.8829 21.0054 11.7719 20.9826 11.6687 20.9383C11.5656 20.8941 11.4725 20.8293 11.3952 20.748L3.15837 12.6552C2.54425 12.1366 2.05081 11.4901 1.71254 10.7609C1.37427 10.0317 1.19934 9.23742 1.19997 8.4336C1.19293 7.44755 1.45236 6.4779 1.95084 5.6271C2.44932 4.7763 3.16835 4.07594 4.03197 3.6C5.16146 3.02475 6.4583 2.86846 7.69212 3.1589C8.92594 3.44934 10.0169 4.16771 10.7712 5.1864L12 6.6Z" stroke="#3C4043" stroke-width="2.4" stroke-linecap="round" stroke-linejoin="round"/>
</svg>
